<mxfile host="app.diagrams.net" modified="2020-11-28T16:48:09.315Z" agent="5.0 (Windows NT 10.0; Win64; x64) AppleWebKit/537.36 (KHTML, like Gecko) Chrome/85.0.4183.121 Safari/537.36 OPR/71.0.3770.323" etag="jlR735oUp85X9pSMKN4N" version="13.10.3" type="github">
  <diagram id="Cw_TWVIbCtukAo7AgEdG" name="Page-1">
    <mxGraphModel dx="1886" dy="684" grid="1" gridSize="10" guides="1" tooltips="1" connect="1" arrows="1" fold="1" page="1" pageScale="1" pageWidth="827" pageHeight="1169" math="0" shadow="0">
      <root>
        <mxCell id="0" />
        <mxCell id="1" parent="0" />
        <mxCell id="E5608xY8XoFg7GbkFlyd-1" value="Usuario" style="rounded=0;whiteSpace=wrap;html=1;" parent="1" vertex="1">
          <mxGeometry x="80" y="390" width="120" height="60" as="geometry" />
        </mxCell>
        <mxCell id="E5608xY8XoFg7GbkFlyd-3" value="Id" style="ellipse;whiteSpace=wrap;html=1;aspect=fixed;" parent="1" vertex="1">
          <mxGeometry x="10" y="290" width="70" height="70" as="geometry" />
        </mxCell>
        <mxCell id="E5608xY8XoFg7GbkFlyd-4" value="Nombre" style="ellipse;whiteSpace=wrap;html=1;aspect=fixed;" parent="1" vertex="1">
          <mxGeometry x="105" y="250" width="70" height="70" as="geometry" />
        </mxCell>
        <mxCell id="E5608xY8XoFg7GbkFlyd-5" value="Apellidos" style="ellipse;whiteSpace=wrap;html=1;aspect=fixed;" parent="1" vertex="1">
          <mxGeometry x="200" y="290" width="70" height="70" as="geometry" />
        </mxCell>
        <mxCell id="E5608xY8XoFg7GbkFlyd-6" value="Correos" style="ellipse;whiteSpace=wrap;html=1;aspect=fixed;" parent="1" vertex="1">
          <mxGeometry x="230" y="440" width="70" height="70" as="geometry" />
        </mxCell>
        <mxCell id="E5608xY8XoFg7GbkFlyd-7" value="Clave" style="ellipse;whiteSpace=wrap;html=1;aspect=fixed;direction=south;" parent="1" vertex="1">
          <mxGeometry x="200" y="520" width="70" height="70" as="geometry" />
        </mxCell>
        <mxCell id="E5608xY8XoFg7GbkFlyd-9" value="" style="endArrow=none;html=1;entryX=0;entryY=1;entryDx=0;entryDy=0;" parent="1" source="j95iqcMVV-dbt55YVdli-1" target="E5608xY8XoFg7GbkFlyd-1" edge="1">
          <mxGeometry width="50" height="50" relative="1" as="geometry">
            <mxPoint x="70" y="480" as="sourcePoint" />
            <mxPoint x="390" y="420" as="targetPoint" />
          </mxGeometry>
        </mxCell>
        <mxCell id="E5608xY8XoFg7GbkFlyd-10" value="" style="endArrow=none;html=1;entryX=0;entryY=0;entryDx=0;entryDy=0;exitX=1;exitY=1;exitDx=0;exitDy=0;" parent="1" source="E5608xY8XoFg7GbkFlyd-3" target="E5608xY8XoFg7GbkFlyd-1" edge="1">
          <mxGeometry width="50" height="50" relative="1" as="geometry">
            <mxPoint x="90" y="350" as="sourcePoint" />
            <mxPoint x="390" y="420" as="targetPoint" />
          </mxGeometry>
        </mxCell>
        <mxCell id="E5608xY8XoFg7GbkFlyd-11" value="" style="endArrow=none;html=1;entryX=0.5;entryY=1;entryDx=0;entryDy=0;exitX=0.5;exitY=0;exitDx=0;exitDy=0;" parent="1" source="E5608xY8XoFg7GbkFlyd-1" target="E5608xY8XoFg7GbkFlyd-4" edge="1">
          <mxGeometry width="50" height="50" relative="1" as="geometry">
            <mxPoint x="340" y="470" as="sourcePoint" />
            <mxPoint x="390" y="420" as="targetPoint" />
          </mxGeometry>
        </mxCell>
        <mxCell id="E5608xY8XoFg7GbkFlyd-12" value="" style="endArrow=none;html=1;entryX=0.833;entryY=1;entryDx=0;entryDy=0;entryPerimeter=0;" parent="1" source="E5608xY8XoFg7GbkFlyd-7" target="E5608xY8XoFg7GbkFlyd-1" edge="1">
          <mxGeometry width="50" height="50" relative="1" as="geometry">
            <mxPoint x="120" y="520" as="sourcePoint" />
            <mxPoint x="170" y="470" as="targetPoint" />
          </mxGeometry>
        </mxCell>
        <mxCell id="E5608xY8XoFg7GbkFlyd-13" value="" style="endArrow=none;html=1;entryX=1;entryY=1;entryDx=0;entryDy=0;exitX=0;exitY=0;exitDx=0;exitDy=0;" parent="1" source="E5608xY8XoFg7GbkFlyd-6" target="E5608xY8XoFg7GbkFlyd-1" edge="1">
          <mxGeometry width="50" height="50" relative="1" as="geometry">
            <mxPoint x="218.40650619379585" y="484.18351150276294" as="sourcePoint" />
            <mxPoint x="240" y="440" as="targetPoint" />
          </mxGeometry>
        </mxCell>
        <mxCell id="E5608xY8XoFg7GbkFlyd-14" value="" style="endArrow=none;html=1;exitX=1;exitY=0;exitDx=0;exitDy=0;entryX=0;entryY=1;entryDx=0;entryDy=0;" parent="1" source="E5608xY8XoFg7GbkFlyd-1" target="E5608xY8XoFg7GbkFlyd-5" edge="1">
          <mxGeometry width="50" height="50" relative="1" as="geometry">
            <mxPoint x="340" y="470" as="sourcePoint" />
            <mxPoint x="220" y="350" as="targetPoint" />
          </mxGeometry>
        </mxCell>
        <mxCell id="E5608xY8XoFg7GbkFlyd-15" value="Informar" style="rhombus;whiteSpace=wrap;html=1;" parent="1" vertex="1">
          <mxGeometry x="320" y="380" width="80" height="80" as="geometry" />
        </mxCell>
        <mxCell id="E5608xY8XoFg7GbkFlyd-16" value="" style="endArrow=none;html=1;exitX=1;exitY=0.5;exitDx=0;exitDy=0;" parent="1" source="E5608xY8XoFg7GbkFlyd-1" edge="1">
          <mxGeometry width="50" height="50" relative="1" as="geometry">
            <mxPoint x="290" y="470" as="sourcePoint" />
            <mxPoint x="320" y="420" as="targetPoint" />
          </mxGeometry>
        </mxCell>
        <mxCell id="E5608xY8XoFg7GbkFlyd-17" value="Bebidas energeticas" style="rounded=0;whiteSpace=wrap;html=1;" parent="1" vertex="1">
          <mxGeometry x="520" y="390" width="120" height="60" as="geometry" />
        </mxCell>
        <mxCell id="E5608xY8XoFg7GbkFlyd-18" value="" style="endArrow=none;html=1;exitX=1;exitY=0.5;exitDx=0;exitDy=0;entryX=0;entryY=0.5;entryDx=0;entryDy=0;" parent="1" source="E5608xY8XoFg7GbkFlyd-15" target="E5608xY8XoFg7GbkFlyd-17" edge="1">
          <mxGeometry width="50" height="50" relative="1" as="geometry">
            <mxPoint x="430" y="450" as="sourcePoint" />
            <mxPoint x="480" y="400" as="targetPoint" />
          </mxGeometry>
        </mxCell>
        <mxCell id="E5608xY8XoFg7GbkFlyd-20" value="Tasa de Adicción" style="ellipse;whiteSpace=wrap;html=1;aspect=fixed;" parent="1" vertex="1">
          <mxGeometry x="640" y="480" width="70" height="70" as="geometry" />
        </mxCell>
        <mxCell id="E5608xY8XoFg7GbkFlyd-21" value="Marca Bebida" style="ellipse;whiteSpace=wrap;html=1;aspect=fixed;" parent="1" vertex="1">
          <mxGeometry x="450" y="290" width="70" height="70" as="geometry" />
        </mxCell>
        <mxCell id="E5608xY8XoFg7GbkFlyd-23" value="Popularidad" style="ellipse;whiteSpace=wrap;html=1;aspect=fixed;" parent="1" vertex="1">
          <mxGeometry x="640" y="290" width="70" height="70" as="geometry" />
        </mxCell>
        <mxCell id="E5608xY8XoFg7GbkFlyd-24" value="" style="endArrow=none;html=1;entryX=1;entryY=1;entryDx=0;entryDy=0;exitX=0;exitY=0;exitDx=0;exitDy=0;" parent="1" source="E5608xY8XoFg7GbkFlyd-17" target="E5608xY8XoFg7GbkFlyd-21" edge="1">
          <mxGeometry width="50" height="50" relative="1" as="geometry">
            <mxPoint x="340" y="450" as="sourcePoint" />
            <mxPoint x="390" y="400" as="targetPoint" />
          </mxGeometry>
        </mxCell>
        <mxCell id="E5608xY8XoFg7GbkFlyd-25" value="" style="endArrow=none;html=1;entryX=0.5;entryY=1;entryDx=0;entryDy=0;exitX=1;exitY=0;exitDx=0;exitDy=0;" parent="1" source="E5608xY8XoFg7GbkFlyd-17" target="E5608xY8XoFg7GbkFlyd-23" edge="1">
          <mxGeometry width="50" height="50" relative="1" as="geometry">
            <mxPoint x="340" y="450" as="sourcePoint" />
            <mxPoint x="390" y="400" as="targetPoint" />
          </mxGeometry>
        </mxCell>
        <mxCell id="E5608xY8XoFg7GbkFlyd-26" value="" style="endArrow=none;html=1;exitX=1;exitY=1;exitDx=0;exitDy=0;" parent="1" source="E5608xY8XoFg7GbkFlyd-17" target="E5608xY8XoFg7GbkFlyd-20" edge="1">
          <mxGeometry width="50" height="50" relative="1" as="geometry">
            <mxPoint x="640" y="420" as="sourcePoint" />
            <mxPoint x="390" y="400" as="targetPoint" />
          </mxGeometry>
        </mxCell>
        <mxCell id="Zop4EsDITsTbeh9_y8z3-3" value="Producto" style="ellipse;whiteSpace=wrap;html=1;aspect=fixed;" parent="1" vertex="1">
          <mxGeometry x="545" y="250" width="70" height="70" as="geometry" />
        </mxCell>
        <mxCell id="Zop4EsDITsTbeh9_y8z3-4" value="Descripción" style="ellipse;whiteSpace=wrap;html=1;aspect=fixed;" parent="1" vertex="1">
          <mxGeometry x="450" y="480" width="70" height="70" as="geometry" />
        </mxCell>
        <mxCell id="Zop4EsDITsTbeh9_y8z3-6" value="" style="endArrow=none;html=1;entryX=0.5;entryY=1;entryDx=0;entryDy=0;" parent="1" source="E5608xY8XoFg7GbkFlyd-17" target="Zop4EsDITsTbeh9_y8z3-3" edge="1">
          <mxGeometry width="50" height="50" relative="1" as="geometry">
            <mxPoint x="440" y="380" as="sourcePoint" />
            <mxPoint x="490" y="330" as="targetPoint" />
          </mxGeometry>
        </mxCell>
        <mxCell id="Zop4EsDITsTbeh9_y8z3-7" value="" style="endArrow=none;html=1;entryX=0;entryY=1;entryDx=0;entryDy=0;" parent="1" source="Zop4EsDITsTbeh9_y8z3-4" target="E5608xY8XoFg7GbkFlyd-17" edge="1">
          <mxGeometry width="50" height="50" relative="1" as="geometry">
            <mxPoint x="440" y="380" as="sourcePoint" />
            <mxPoint x="510" y="450" as="targetPoint" />
          </mxGeometry>
        </mxCell>
        <mxCell id="Zop4EsDITsTbeh9_y8z3-21" value="Id" style="ellipse;whiteSpace=wrap;html=1;aspect=fixed;" parent="1" vertex="1">
          <mxGeometry x="545" y="520" width="70" height="70" as="geometry" />
        </mxCell>
        <mxCell id="Zop4EsDITsTbeh9_y8z3-22" value="registrar cosulta" style="rhombus;whiteSpace=wrap;html=1;" parent="1" vertex="1">
          <mxGeometry x="100" y="670" width="80" height="80" as="geometry" />
        </mxCell>
        <mxCell id="Zop4EsDITsTbeh9_y8z3-23" value="Consultas" style="rounded=0;whiteSpace=wrap;html=1;" parent="1" vertex="1">
          <mxGeometry x="80" y="820" width="120" height="60" as="geometry" />
        </mxCell>
        <mxCell id="Zop4EsDITsTbeh9_y8z3-24" value="id_usuario" style="ellipse;whiteSpace=wrap;html=1;aspect=fixed;" parent="1" vertex="1">
          <mxGeometry x="-60" y="810" width="80" height="80" as="geometry" />
        </mxCell>
        <mxCell id="Zop4EsDITsTbeh9_y8z3-25" value="id_bebida" style="ellipse;whiteSpace=wrap;html=1;aspect=fixed;" parent="1" vertex="1">
          <mxGeometry x="280" y="810" width="80" height="80" as="geometry" />
        </mxCell>
        <mxCell id="Zop4EsDITsTbeh9_y8z3-26" value="fecha" style="ellipse;whiteSpace=wrap;html=1;aspect=fixed;" parent="1" vertex="1">
          <mxGeometry y="930" width="80" height="80" as="geometry" />
        </mxCell>
        <mxCell id="Zop4EsDITsTbeh9_y8z3-27" value="hora" style="ellipse;whiteSpace=wrap;html=1;aspect=fixed;" parent="1" vertex="1">
          <mxGeometry x="200" y="930" width="80" height="80" as="geometry" />
        </mxCell>
        <mxCell id="Zop4EsDITsTbeh9_y8z3-28" value="" style="endArrow=none;html=1;entryX=0.5;entryY=1;entryDx=0;entryDy=0;exitX=0.5;exitY=0;exitDx=0;exitDy=0;" parent="1" source="Zop4EsDITsTbeh9_y8z3-21" target="E5608xY8XoFg7GbkFlyd-17" edge="1">
          <mxGeometry width="50" height="50" relative="1" as="geometry">
            <mxPoint x="560" y="510" as="sourcePoint" />
            <mxPoint x="610" y="460" as="targetPoint" />
          </mxGeometry>
        </mxCell>
        <mxCell id="Zop4EsDITsTbeh9_y8z3-29" value="" style="endArrow=none;html=1;entryX=1;entryY=0.5;entryDx=0;entryDy=0;exitX=0;exitY=0.5;exitDx=0;exitDy=0;" parent="1" source="Zop4EsDITsTbeh9_y8z3-25" target="Zop4EsDITsTbeh9_y8z3-23" edge="1">
          <mxGeometry width="50" height="50" relative="1" as="geometry">
            <mxPoint x="220" y="890" as="sourcePoint" />
            <mxPoint x="270" y="840" as="targetPoint" />
          </mxGeometry>
        </mxCell>
        <mxCell id="Zop4EsDITsTbeh9_y8z3-30" value="" style="endArrow=none;html=1;entryX=0;entryY=0.5;entryDx=0;entryDy=0;exitX=1;exitY=0.5;exitDx=0;exitDy=0;" parent="1" source="Zop4EsDITsTbeh9_y8z3-24" target="Zop4EsDITsTbeh9_y8z3-23" edge="1">
          <mxGeometry width="50" height="50" relative="1" as="geometry">
            <mxPoint x="10" y="830" as="sourcePoint" />
            <mxPoint x="60" y="780" as="targetPoint" />
          </mxGeometry>
        </mxCell>
        <mxCell id="Zop4EsDITsTbeh9_y8z3-31" value="" style="endArrow=none;html=1;entryX=0.25;entryY=1;entryDx=0;entryDy=0;exitX=1;exitY=0;exitDx=0;exitDy=0;" parent="1" source="Zop4EsDITsTbeh9_y8z3-26" target="Zop4EsDITsTbeh9_y8z3-23" edge="1">
          <mxGeometry width="50" height="50" relative="1" as="geometry">
            <mxPoint x="90" y="950" as="sourcePoint" />
            <mxPoint x="100" y="890" as="targetPoint" />
          </mxGeometry>
        </mxCell>
        <mxCell id="Zop4EsDITsTbeh9_y8z3-32" value="" style="endArrow=none;html=1;entryX=0.75;entryY=1;entryDx=0;entryDy=0;exitX=0;exitY=0;exitDx=0;exitDy=0;" parent="1" source="Zop4EsDITsTbeh9_y8z3-27" target="Zop4EsDITsTbeh9_y8z3-23" edge="1">
          <mxGeometry width="50" height="50" relative="1" as="geometry">
            <mxPoint x="190" y="960" as="sourcePoint" />
            <mxPoint x="180" y="900" as="targetPoint" />
          </mxGeometry>
        </mxCell>
        <mxCell id="Zop4EsDITsTbeh9_y8z3-33" value="" style="endArrow=none;html=1;exitX=0.5;exitY=0;exitDx=0;exitDy=0;entryX=0.5;entryY=1;entryDx=0;entryDy=0;entryPerimeter=0;" parent="1" source="Zop4EsDITsTbeh9_y8z3-23" target="Zop4EsDITsTbeh9_y8z3-22" edge="1">
          <mxGeometry width="50" height="50" relative="1" as="geometry">
            <mxPoint x="130" y="820" as="sourcePoint" />
            <mxPoint x="140" y="760" as="targetPoint" />
          </mxGeometry>
        </mxCell>
        <mxCell id="Zop4EsDITsTbeh9_y8z3-34" value="" style="endArrow=none;html=1;exitX=0.5;exitY=0;exitDx=0;exitDy=0;" parent="1" source="Zop4EsDITsTbeh9_y8z3-22" edge="1">
          <mxGeometry width="50" height="50" relative="1" as="geometry">
            <mxPoint x="350" y="530" as="sourcePoint" />
            <mxPoint x="140" y="450" as="targetPoint" />
          </mxGeometry>
        </mxCell>
        <mxCell id="j95iqcMVV-dbt55YVdli-1" value="Fecha de nacimiento" style="ellipse;whiteSpace=wrap;html=1;aspect=fixed;" vertex="1" parent="1">
          <mxGeometry x="10" y="480" width="70" height="70" as="geometry" />
        </mxCell>
      </root>
    </mxGraphModel>
  </diagram>
</mxfile>
